<svg width="1400" height="840" viewBox="0 0 1400 840" fill="none" xmlns="http://www.w3.org/2000/svg">
  <defs>
    <linearGradient id="bg" x1="0" y1="0" x2="1400" y2="840" gradientUnits="userSpaceOnUse">
      <stop stop-color="#0A0F1C"/>
      <stop offset="1" stop-color="#131D33"/>
    </linearGradient>
    <linearGradient id="card" x1="0" y1="0" x2="1" y2="1">
      <stop stop-color="#202D4A" stop-opacity="0.85"/>
      <stop offset="1" stop-color="#1B253C" stop-opacity="0.75"/>
    </linearGradient>
  </defs>
  <rect width="1400" height="840" rx="28" fill="url(#bg)"/>
  <rect x="40" y="36" width="1320" height="190" rx="22" fill="url(#card)" stroke="#7FA0FF" stroke-opacity="0.35"/>
  <text x="76" y="86" fill="#AFC3F7" font-size="22" font-family="Inter, Arial">Exam Pulse Pro • One-time purchase • 100% offline</text>
  <text x="76" y="138" fill="#F6F8FF" font-size="44" font-family="Inter, Arial" font-weight="700">Welcome to your precision exam flow.</text>
  <text x="76" y="178" fill="#C3D0EE" font-size="24" font-family="Inter, Arial">Modern minimal dashboard for students and academics.</text>

  <rect x="40" y="248" width="420" height="552" rx="22" fill="url(#card)" stroke="#86A6FF" stroke-opacity="0.25"/>
  <text x="72" y="300" fill="#FFFFFF" font-size="30" font-family="Inter, Arial" font-weight="600">Add exam</text>
  <rect x="72" y="328" width="356" height="58" rx="12" fill="#0F172A"/>
  <text x="92" y="365" fill="#B8C7EA" font-size="20" font-family="Inter, Arial">Algorithms Final</text>
  <rect x="72" y="402" width="170" height="58" rx="12" fill="#0F172A"/>
  <rect x="258" y="402" width="170" height="58" rx="12" fill="#0F172A"/>
  <text x="90" y="438" fill="#B8C7EA" font-size="18" font-family="Inter, Arial">2026-10-12</text>
  <text x="290" y="438" fill="#B8C7EA" font-size="18" font-family="Inter, Arial">10:00</text>
  <rect x="72" y="476" width="356" height="116" rx="12" fill="#0F172A"/>
  <text x="92" y="516" fill="#B8C7EA" font-size="18" font-family="Inter, Arial">Bring ID card and two pens.</text>
  <rect x="72" y="614" width="356" height="62" rx="14" fill="#7FA0FF"/>
  <text x="171" y="652" fill="#061026" font-size="24" font-family="Inter, Arial" font-weight="700">Add to dashboard</text>

  <rect x="484" y="248" width="876" height="552" rx="22" fill="url(#card)" stroke="#86A6FF" stroke-opacity="0.25"/>
  <text x="520" y="300" fill="#FFFFFF" font-size="30" font-family="Inter, Arial" font-weight="600">Countdown dashboard</text>

  <rect x="520" y="334" width="804" height="128" rx="16" fill="#121B2F" stroke="#86A6FF" stroke-opacity="0.22"/>
  <text x="548" y="378" fill="#F6F8FF" font-size="28" font-family="Inter, Arial" font-weight="600">Algorithms Final</text>
  <text x="548" y="412" fill="#B9C8EA" font-size="20" font-family="Inter, Arial">Oct 12, 2026 at 10:00</text>
  <text x="968" y="412" fill="#79E4BE" font-size="24" font-family="Inter, Arial" font-weight="700">241d 4h 20m 12s</text>

  <rect x="520" y="484" width="804" height="128" rx="16" fill="#121B2F" stroke="#86A6FF" stroke-opacity="0.22"/>
  <text x="548" y="528" fill="#F6F8FF" font-size="28" font-family="Inter, Arial" font-weight="600">Data Structures Practical</text>
  <text x="548" y="562" fill="#B9C8EA" font-size="20" font-family="Inter, Arial">Oct 21, 2026 at 14:00</text>
  <text x="968" y="562" fill="#79E4BE" font-size="24" font-family="Inter, Arial" font-weight="700">250d 8h 20m 12s</text>

  <rect x="520" y="634" width="804" height="128" rx="16" fill="#121B2F" stroke="#86A6FF" stroke-opacity="0.22"/>
  <text x="548" y="678" fill="#F6F8FF" font-size="28" font-family="Inter, Arial" font-weight="600">Operating Systems Viva</text>
  <text x="548" y="712" fill="#B9C8EA" font-size="20" font-family="Inter, Arial">Nov 2, 2026 at 09:00</text>
  <text x="968" y="712" fill="#79E4BE" font-size="24" font-family="Inter, Arial" font-weight="700">262d 3h 20m 12s</text>
</svg>
